<mxfile host="app.diagrams.net" agent="Mozilla/5.0 (Windows NT 10.0; Win64; x64) AppleWebKit/537.36 (KHTML, like Gecko) Chrome/132.0.0.0 Safari/537.36" version="26.0.7">
  <diagram name="Page-1" id="lyl6onnCOQ3Qk_TiW-Y_">
    <mxGraphModel dx="1311" dy="673" grid="1" gridSize="10" guides="1" tooltips="1" connect="1" arrows="1" fold="1" page="1" pageScale="1" pageWidth="850" pageHeight="1100" math="0" shadow="0">
      <root>
        <mxCell id="0" />
        <mxCell id="1" parent="0" />
        <mxCell id="iWmauXSBlkHZwN2qfKHu-6" value="" style="edgeStyle=orthogonalEdgeStyle;rounded=0;orthogonalLoop=1;jettySize=auto;html=1;" parent="1" source="iWmauXSBlkHZwN2qfKHu-1" target="iWmauXSBlkHZwN2qfKHu-5" edge="1">
          <mxGeometry relative="1" as="geometry" />
        </mxCell>
        <mxCell id="iWmauXSBlkHZwN2qfKHu-1" value="Start" style="ellipse;whiteSpace=wrap;html=1;" parent="1" vertex="1">
          <mxGeometry x="162" y="40" width="120" height="80" as="geometry" />
        </mxCell>
        <mxCell id="iWmauXSBlkHZwN2qfKHu-9" value="" style="edgeStyle=orthogonalEdgeStyle;rounded=0;orthogonalLoop=1;jettySize=auto;html=1;" parent="1" source="iWmauXSBlkHZwN2qfKHu-5" target="iWmauXSBlkHZwN2qfKHu-8" edge="1">
          <mxGeometry relative="1" as="geometry" />
        </mxCell>
        <mxCell id="iWmauXSBlkHZwN2qfKHu-5" value="Input score" style="shape=parallelogram;perimeter=parallelogramPerimeter;whiteSpace=wrap;html=1;fixedSize=1;" parent="1" vertex="1">
          <mxGeometry x="162" y="170" width="120" height="60" as="geometry" />
        </mxCell>
        <mxCell id="huTg2Gg__63lrAw97Fkq-6" value="" style="edgeStyle=orthogonalEdgeStyle;rounded=0;orthogonalLoop=1;jettySize=auto;html=1;" edge="1" parent="1" source="iWmauXSBlkHZwN2qfKHu-8" target="huTg2Gg__63lrAw97Fkq-5">
          <mxGeometry relative="1" as="geometry" />
        </mxCell>
        <mxCell id="iWmauXSBlkHZwN2qfKHu-8" value="number = 0" style="rhombus;whiteSpace=wrap;html=1;" parent="1" vertex="1">
          <mxGeometry x="150" y="290" width="145" height="80" as="geometry" />
        </mxCell>
        <mxCell id="huTg2Gg__63lrAw97Fkq-8" value="" style="edgeStyle=orthogonalEdgeStyle;rounded=0;orthogonalLoop=1;jettySize=auto;html=1;" edge="1" parent="1" source="huTg2Gg__63lrAw97Fkq-5" target="huTg2Gg__63lrAw97Fkq-7">
          <mxGeometry relative="1" as="geometry" />
        </mxCell>
        <mxCell id="huTg2Gg__63lrAw97Fkq-10" value="" style="edgeStyle=orthogonalEdgeStyle;rounded=0;orthogonalLoop=1;jettySize=auto;html=1;" edge="1" parent="1" source="huTg2Gg__63lrAw97Fkq-5" target="huTg2Gg__63lrAw97Fkq-9">
          <mxGeometry relative="1" as="geometry" />
        </mxCell>
        <mxCell id="huTg2Gg__63lrAw97Fkq-16" style="edgeStyle=orthogonalEdgeStyle;rounded=0;orthogonalLoop=1;jettySize=auto;html=1;entryX=0;entryY=0.5;entryDx=0;entryDy=0;exitX=0;exitY=0.5;exitDx=0;exitDy=0;" edge="1" parent="1" source="iWmauXSBlkHZwN2qfKHu-8" target="huTg2Gg__63lrAw97Fkq-15">
          <mxGeometry relative="1" as="geometry">
            <Array as="points">
              <mxPoint x="60" y="330" />
              <mxPoint x="60" y="740" />
            </Array>
          </mxGeometry>
        </mxCell>
        <mxCell id="huTg2Gg__63lrAw97Fkq-5" value="number % 2 = 0" style="rhombus;whiteSpace=wrap;html=1;" vertex="1" parent="1">
          <mxGeometry x="117.5" y="420" width="210" height="110" as="geometry" />
        </mxCell>
        <mxCell id="huTg2Gg__63lrAw97Fkq-13" style="edgeStyle=orthogonalEdgeStyle;rounded=0;orthogonalLoop=1;jettySize=auto;html=1;exitX=1;exitY=0.5;exitDx=0;exitDy=0;" edge="1" parent="1" source="huTg2Gg__63lrAw97Fkq-7">
          <mxGeometry relative="1" as="geometry">
            <mxPoint x="590" y="475" as="targetPoint" />
          </mxGeometry>
        </mxCell>
        <mxCell id="huTg2Gg__63lrAw97Fkq-7" value="นับจำนวนเลขคู่เพิ่ม 1 ครั้ง" style="whiteSpace=wrap;html=1;" vertex="1" parent="1">
          <mxGeometry x="380" y="445" width="152.5" height="60" as="geometry" />
        </mxCell>
        <mxCell id="huTg2Gg__63lrAw97Fkq-11" style="edgeStyle=orthogonalEdgeStyle;rounded=0;orthogonalLoop=1;jettySize=auto;html=1;exitX=1;exitY=0.5;exitDx=0;exitDy=0;entryX=1;entryY=0.5;entryDx=0;entryDy=0;" edge="1" parent="1" source="huTg2Gg__63lrAw97Fkq-9" target="iWmauXSBlkHZwN2qfKHu-8">
          <mxGeometry relative="1" as="geometry">
            <Array as="points">
              <mxPoint x="590" y="610" />
              <mxPoint x="590" y="330" />
            </Array>
          </mxGeometry>
        </mxCell>
        <mxCell id="huTg2Gg__63lrAw97Fkq-9" value="นับจำนวนเลขคี่เพิ่ม 1 ครั้ง" style="whiteSpace=wrap;html=1;" vertex="1" parent="1">
          <mxGeometry x="143.75" y="580" width="157.5" height="60" as="geometry" />
        </mxCell>
        <mxCell id="huTg2Gg__63lrAw97Fkq-15" value="แสดงผลจำนวนคู่-คี่" style="rounded=0;whiteSpace=wrap;html=1;" vertex="1" parent="1">
          <mxGeometry x="162" y="710" width="120" height="60" as="geometry" />
        </mxCell>
        <mxCell id="huTg2Gg__63lrAw97Fkq-17" value="True" style="text;html=1;align=center;verticalAlign=middle;whiteSpace=wrap;rounded=0;" vertex="1" parent="1">
          <mxGeometry x="83.75" y="290" width="60" height="30" as="geometry" />
        </mxCell>
        <mxCell id="huTg2Gg__63lrAw97Fkq-18" value="False" style="text;html=1;align=center;verticalAlign=middle;whiteSpace=wrap;rounded=0;" vertex="1" parent="1">
          <mxGeometry x="241.25" y="380" width="60" height="30" as="geometry" />
        </mxCell>
        <mxCell id="huTg2Gg__63lrAw97Fkq-19" value="True" style="text;html=1;align=center;verticalAlign=middle;whiteSpace=wrap;rounded=0;" vertex="1" parent="1">
          <mxGeometry x="320" y="445" width="60" height="30" as="geometry" />
        </mxCell>
        <mxCell id="huTg2Gg__63lrAw97Fkq-20" value="False" style="text;html=1;align=center;verticalAlign=middle;whiteSpace=wrap;rounded=0;" vertex="1" parent="1">
          <mxGeometry x="222" y="535" width="60" height="30" as="geometry" />
        </mxCell>
      </root>
    </mxGraphModel>
  </diagram>
</mxfile>
